<?xml version="1.0" standalone="no"?>
<svg
  width="600"
  height="600"
  viewBox="0 0 600 600"
  xmlns="http://www.w3.org/2000/svg"
>
  <g transform="translate(300,300)">
    <path d="M72,-102.9C90.6,-100,101.3,-75.6,119.8,-50.2C138.3,-24.9,164.7,1.3,177.7,37.3C190.8,73.3,190.6,119.2,161.4,123.5C132.2,127.9,74,90.8,39.4,73.1C4.8,55.3,-6.2,56.9,-29,65.4C-51.8,73.9,-86.3,89.4,-131,86.4C-175.6,83.5,-230.4,62.3,-245.8,28.5C-261.3,-5.2,-237.5,-51.4,-194.1,-64.6C-150.6,-77.7,-87.5,-57.8,-51.8,-52.8C-16.2,-47.9,-8.1,-58,9.3,-72.4C26.7,-86.8,53.3,-105.7,72,-102.9Z" fill="#003135" />
  </g>
</svg>
  