<?xml version="1.0" standalone="no"?>
<svg
  width="600"
  height="600"
  viewBox="0 0 600 600"
  xmlns="http://www.w3.org/2000/svg"
>
  <g transform="translate(300,300)">
    <path d="M91.3,-163.7C108,-131.3,104,-88.5,85.5,-59.5C67,-30.4,34,-15.1,35.9,8.5C37.7,32.2,74.4,64.2,79.7,82.8C85,101.3,58.8,106.3,32.6,116.6C6.3,127,-20.1,142.6,-56.2,150.6C-92.2,158.6,-137.9,158.9,-178.8,139.5C-219.8,120.1,-255.9,81,-258,39.6C-260.2,-1.9,-228.3,-45.8,-182.9,-57.9C-137.5,-69.9,-78.5,-50.1,-45.7,-75.1C-13,-100.2,-6.5,-170.1,15.4,-194.1C37.3,-218,74.6,-196.1,91.3,-163.7Z" fill="#033035" />
  </g>
</svg>
  