<?xml version="1.0" standalone="no"?>
<svg
  width="600"
  height="600"
  viewBox="0 0 600 600"
  xmlns="http://www.w3.org/2000/svg"
>
  <g transform="translate(300,300)">
    <path d="M87.6,-140.4C118,-116.9,149.9,-100,177.3,-71.7C204.8,-43.4,227.6,-3.7,223.3,32.7C219.1,69.2,187.8,102.4,153.4,121.5C119,140.6,81.6,145.6,44.1,162C6.6,178.5,-31.1,206.3,-62.4,201.9C-93.7,197.6,-118.6,161,-153,128.6C-187.5,96.1,-231.3,67.9,-229.4,37.1C-227.4,6.3,-179.7,-27,-149.6,-58.1C-119.5,-89.2,-107,-118.2,-85.1,-145.5C-63.1,-172.8,-31.5,-198.4,-1.4,-196.2C28.7,-193.9,57.3,-163.8,87.6,-140.4Z" fill="#f87e7d" />
  </g>
</svg>
  